<svg
      xmlns="http://www.w3.org/2000/svg"
      width="917"
      height="947"
      fill="none"
      viewBox="0 0 917 947"
    >
      <path
        fill="#130F40"
        d="M0 514h917v233c0 110.457-89.543 200-200 200H200C89.543 947 0 857.457 0 747V514z"
        opacity="0.95"
      ></path>
      <path
        fill="#1E1633"
        d="M0 514h917V200C917 89.543 827.457 0 717 0H200C89.543 0 0 89.543 0 200v314z"
        opacity="0.95"
      ></path>
      <path
        fill="#FFE169"
        fillRule="evenodd"
        d="M153.84 382.601a328.506 328.506 0 0090.926 365.715 328.504 328.504 0 00374.759 39.627 328.498 328.498 0 00165.402-338.609c-5.164-32.732-35.886-55.08-68.618-49.915-32.732 5.164-55.08 35.886-49.915 68.618a208.5 208.5 0 11-206.666-176.003l-.551 30.351c-.575 31.665 37.85 47.751 60.005 25.119l86.487-88.348c12.975-13.253 13.357-34.327.873-48.043l-83.222-91.431c-21.318-23.421-60.303-8.741-60.878 22.924l-.534 29.43A328.502 328.502 0 00153.84 382.601z"
        clipRule="evenodd"
      ></path>
      <path
        fill="#FDFFA8"
        fillRule="evenodd"
        d="M466.709 400.421C458.516 390.999 446.158 385 432.333 385c-24.668 0-44.666 19.103-44.666 42.667 0 7.555 2.055 14.652 5.662 20.807A39.85 39.85 0 00377 445c-22.091 0-40 17.909-40 40 0 19.588 14.08 35.888 32.672 39.33-.003.223-.005.446-.005.67 0 22.091 17.908 40 40 40 16.487 0 30.644-9.975 36.766-24.219a39.83 39.83 0 0017.9 4.219c3.759 0 7.397-.518 10.846-1.488 6.263 7.38 16.244 12.155 27.488 12.155 18.961 0 34.333-13.581 34.333-30.334 0-.337-.006-.673-.019-1.007 2.384.443 4.841.674 7.352.674 22.092 0 40-17.909 40-40s-17.908-40-40-40c-.191 0-.382.001-.573.004.377-2.391.573-4.842.573-7.337 0-26.142-21.49-47.334-48-47.334-11.179 0-21.465 3.769-29.624 10.088zM511 578c0 6.627-6.716 12-15 12-8.284 0-15-5.373-15-12s6.716-12 15-12c8.284 0 15 5.373 15 12zm-37.5 48c6.904 0 12.5-4.925 12.5-11s-5.596-11-12.5-11-12.5 4.925-12.5 11 5.596 11 12.5 11z"
        clipRule="evenodd"
      ></path>
    </svg>
